<?xml version="1.0" encoding="UTF-8" standalone="no"?>
<!-- Created with Inkscape (http://www.inkscape.org/) -->

<svg
   xmlns:osb="http://www.openswatchbook.org/uri/2009/osb"
   xmlns:dc="http://purl.org/dc/elements/1.1/"
   xmlns:cc="http://creativecommons.org/ns#"
   xmlns:rdf="http://www.w3.org/1999/02/22-rdf-syntax-ns#"
   xmlns:svg="http://www.w3.org/2000/svg"
   xmlns="http://www.w3.org/2000/svg"
   xmlns:sodipodi="http://sodipodi.sourceforge.net/DTD/sodipodi-0.dtd"
   xmlns:inkscape="http://www.inkscape.org/namespaces/inkscape"
   width="500px"
   height="500px"
   viewBox="0 0 210 297"
   version="1.1"
   id="svg8"
   sodipodi:docname="icon.svg"
   inkscape:version="0.92.3 (unknown)"
   inkscape:export-filename="icon.png"
   inkscape:export-xdpi="7.6799998"
   inkscape:export-ydpi="7.6799998">
  <defs
     id="defs2">
    <linearGradient
       id="linearGradient2303"
       osb:paint="solid">
      <stop
         style="stop-color:#000000;stop-opacity:1;"
         offset="0"
         id="stop2301" />
    </linearGradient>
    <linearGradient
       id="linearGradient833"
       osb:paint="solid">
      <stop
         style="stop-color:#8e8e8e;stop-opacity:1;"
         offset="0"
         id="stop831" />
    </linearGradient>
    <clipPath
       clipPathUnits="userSpaceOnUse"
       id="clipPath853">
      <rect
         style="opacity:1;fill:#ffffff;fill-opacity:0.54672899;fill-rule:evenodd;stroke:none;stroke-width:11.88000011;stroke-linecap:round;stroke-linejoin:round;stroke-miterlimit:4;stroke-dasharray:none;stroke-dashoffset:0;stroke-opacity:1"
         id="rect855"
         width="285.12"
         height="285.12"
         x="-37.560001"
         y="5.9400001"
         ry="35.639999" />
    </clipPath>
    <clipPath
       clipPathUnits="userSpaceOnUse"
       id="clipPath916">
      <path
         sodipodi:nodetypes="czczc"
         inkscape:connector-curvature="0"
         id="path918"
         d="m 110.94,11.88 c -51.700934,0.88495 -61.415389,53.207372 -67.937259,102.56341 -6.521877,49.35603 -45.3226646,55.06788 -54.34981,58.60766 -9.027147,3.53976 16.0909946,28.22483 47.556083,43.95574 C 67.674103,232.73773 110.94,231.65873 110.94,231.65873"
         style="fill:#ffffff;fill-opacity:1;fill-rule:evenodd;stroke:none;stroke-width:0.84362429px;stroke-linecap:butt;stroke-linejoin:miter;stroke-opacity:1" />
    </clipPath>
    <clipPath
       clipPathUnits="userSpaceOnUse"
       id="clipPath928">
      <path
         style="fill:#ffffff;fill-opacity:1;fill-rule:evenodd;stroke:none;stroke-width:0.84362429px;stroke-linecap:butt;stroke-linejoin:miter;stroke-opacity:1"
         d="m 110.94,11.88 c 51.70094,0.88495 61.41539,53.207372 67.93726,102.56341 6.52188,49.35603 45.32266,55.06788 54.34981,58.60766 9.02715,3.53976 -16.09099,28.22483 -47.55608,43.95574 C 154.2059,232.73773 110.94,231.65873 110.94,231.65873"
         id="path930"
         inkscape:connector-curvature="0"
         sodipodi:nodetypes="czczc" />
    </clipPath>
  </defs>
  <sodipodi:namedview
     id="base"
     pagecolor="#000000"
     bordercolor="#666666"
     borderopacity="1.0"
     inkscape:pageopacity="0"
     inkscape:pageshadow="2"
     inkscape:zoom="1.4"
     inkscape:cx="227.8887"
     inkscape:cy="285.01909"
     inkscape:document-units="px"
     inkscape:current-layer="layer1"
     showgrid="true"
     inkscape:snap-bbox="true"
     inkscape:bbox-nodes="false"
     inkscape:bbox-paths="false"
     inkscape:snap-global="false"
     inkscape:window-width="1440"
     inkscape:window-height="848"
     inkscape:window-x="0"
     inkscape:window-y="0"
     inkscape:window-maximized="1">
    <inkscape:grid
       type="xygrid"
       id="grid817" />
  </sodipodi:namedview>
  <metadata
     id="metadata5">
    <rdf:RDF>
      <cc:Work
         rdf:about="">
        <dc:format>image/svg+xml</dc:format>
        <dc:type
           rdf:resource="http://purl.org/dc/dcmitype/StillImage" />
        <dc:title></dc:title>
      </cc:Work>
    </rdf:RDF>
  </metadata>
  <g
     inkscape:label="Layer 1"
     inkscape:groupmode="layer"
     id="layer1">
    <rect
       style="opacity:1;fill:#000000;fill-opacity:1;fill-rule:evenodd;stroke:#ffffff;stroke-width:16.83834457;stroke-linecap:round;stroke-linejoin:round;stroke-miterlimit:4;stroke-dasharray:none;stroke-dashoffset:0;stroke-opacity:1"
       id="rect941"
       width="280.05856"
       height="280.11313"
       x="-34.978016"
       y="8.4522381"
       ry="63.39558"
       rx="61.097141" />
    <g
       id="g939">
      <path
         style="fill:none;fill-rule:evenodd;stroke:#ffffff;stroke-width:17.81999969;stroke-linecap:butt;stroke-linejoin:miter;stroke-miterlimit:4;stroke-dasharray:none;stroke-opacity:1"
         d="M 103.19679,133.43786 C 123.5625,164.41071 122.82,204.93 146.58,204.93 c 23.76,0 41.58,-124.74 62.37,-124.74 20.79,0 17.82,53.46 35.64,53.46"
         id="path924"
         inkscape:connector-curvature="0"
         sodipodi:nodetypes="cssc" />
      <path
         style="fill:none;fill-rule:evenodd;stroke:#ffffff;stroke-width:17.81999969;stroke-linecap:butt;stroke-linejoin:miter;stroke-miterlimit:4;stroke-dasharray:none;stroke-opacity:1"
         d="m -25.68,112.86 c 23.76,0 29.7,118.8 53.46,118.8 23.76,0 27.064109,-147.887152 50.823827,-148.002918 C 93.544286,83.584286 87.18,121.77 116.88,151.47"
         id="path912"
         inkscape:connector-curvature="0"
         sodipodi:nodetypes="cssc" />
      <path
         sodipodi:nodetypes="czczc"
         inkscape:connector-curvature="0"
         id="path815"
         d="m 110.94,11.88 c -51.700935,0.88495 -61.415386,53.207369 -67.93726,102.56341 -6.521875,49.35603 -45.3226634,55.06788 -54.349809,58.60766 -9.027147,3.53976 16.0909944,28.22483 47.556083,43.95574 C 67.674102,232.73773 110.94,231.65873 110.94,231.65873"
         style="fill:#ffffff;fill-opacity:1;fill-rule:evenodd;stroke:none;stroke-width:0.84362429px;stroke-linecap:butt;stroke-linejoin:miter;stroke-opacity:1" />
      <circle
         r="17.82"
         cy="261.35999"
         cx="110.94"
         id="path889"
         style="opacity:1;fill:#ffffff;fill-opacity:1;fill-rule:evenodd;stroke:none;stroke-width:11.88000011;stroke-linecap:round;stroke-linejoin:round;stroke-miterlimit:4;stroke-dasharray:none;stroke-dashoffset:0;stroke-opacity:1" />
      <path
         clip-path="url(#clipPath916)"
         sodipodi:nodetypes="cssc"
         inkscape:connector-curvature="0"
         id="path910"
         d="m -25.68,112.86 c 23.76,0 29.7,118.8 53.46,118.8 23.76,0 27.064109,-147.887152 50.823827,-148.002918 14.940459,-0.0728 22.676893,42.913158 42.776403,90.014048"
         style="fill:none;fill-rule:evenodd;stroke:#000000;stroke-width:17.81999969;stroke-linecap:butt;stroke-linejoin:miter;stroke-miterlimit:4;stroke-dasharray:none;stroke-opacity:1" />
      <path
         style="fill:#ffffff;fill-opacity:1;fill-rule:evenodd;stroke:none;stroke-width:0.84362429px;stroke-linecap:butt;stroke-linejoin:miter;stroke-opacity:1"
         d="m 110.94,11.88 c 51.70094,0.88495 61.41539,53.207369 67.93726,102.56341 6.52188,49.35603 45.32266,55.06788 54.34981,58.60766 9.02715,3.53976 -16.09099,28.22483 -47.55608,43.95574 C 154.2059,232.73773 110.94,231.65873 110.94,231.65873"
         id="path920"
         inkscape:connector-curvature="0"
         sodipodi:nodetypes="czczc" />
      <path
         clip-path="url(#clipPath928)"
         sodipodi:nodetypes="cssc"
         inkscape:connector-curvature="0"
         id="path922"
         d="M 101.94213,122.54319 C 120.05772,158.46629 122.82,204.93 146.58,204.93 c 23.76,0 41.58,-124.74 62.37,-124.74 20.79,0 17.82,53.46 35.64,53.46"
         style="fill:none;fill-rule:evenodd;stroke:#000000;stroke-width:17.81999969;stroke-linecap:butt;stroke-linejoin:miter;stroke-miterlimit:4;stroke-dasharray:none;stroke-opacity:1" />
    </g>
  </g>
</svg>
